<svg width="15" height="15" viewBox="0 0 15 15" fill="none" xmlns="http://www.w3.org/2000/svg">
<path fill-rule="evenodd" clip-rule="evenodd" d="M4.51645 1.69268C2.95692 1.69268 1.69268 2.95692 1.69268 4.51645V10.9099C1.69268 12.4694 2.95692 13.7337 4.51645 13.7337H10.9099C12.4694 13.7337 13.7337 12.4694 13.7337 10.9099V4.51645C13.7337 2.95692 12.4694 1.69268 10.9099 1.69268H4.51645ZM0.946777 4.51645C0.946777 2.54497 2.54497 0.946777 4.51645 0.946777H10.9099C12.8814 0.946777 14.4796 2.54497 14.4796 4.51645V10.9099C14.4796 12.8814 12.8814 14.4796 10.9099 14.4796H4.51645C2.54497 14.4796 0.946777 12.8814 0.946777 10.9099V4.51645ZM8.06125 5.52449C7.60675 5.45709 7.14258 5.53472 6.73475 5.74634C6.32691 5.95795 5.99619 6.29278 5.78962 6.70319C5.58305 7.1136 5.51115 7.57869 5.58414 8.03232C5.65714 8.48595 5.87131 8.90502 6.1962 9.22991C6.5211 9.5548 6.94016 9.76897 7.39379 9.84197C7.84742 9.91496 8.31251 9.84306 8.72292 9.63649C9.13333 9.42992 9.46816 9.0992 9.67977 8.69137C9.89139 8.28353 9.96902 7.81936 9.90162 7.36487C9.83288 6.90126 9.61685 6.47206 9.28545 6.14066C8.95405 5.80926 8.52485 5.59323 8.06125 5.52449ZM6.3912 5.08426C6.9383 4.80038 7.56097 4.69624 8.17066 4.78665C8.79256 4.87887 9.36832 5.16867 9.81288 5.61323C10.2574 6.05779 10.5472 6.63355 10.6395 7.25545C10.7299 7.86514 10.6257 8.48782 10.3419 9.03491C10.058 9.582 9.60882 10.0256 9.05827 10.3028C8.50772 10.5799 7.88381 10.6763 7.27529 10.5784C6.66676 10.4805 6.1046 10.1932 5.66877 9.75734C5.23294 9.32151 4.94564 8.75935 4.84772 8.15083C4.7498 7.5423 4.84625 6.91839 5.12336 6.36784C5.40046 5.81729 5.84411 5.36813 6.3912 5.08426ZM11.2296 3.82367C11.0236 3.82367 10.8567 3.99065 10.8567 4.19662C10.8567 4.4026 11.0236 4.56957 11.2296 4.56957H11.2357C11.4417 4.56957 11.6087 4.4026 11.6087 4.19662C11.6087 3.99065 11.4417 3.82367 11.2357 3.82367H11.2296Z" fill="white"/>
</svg>
