<svg width="50" height="64" viewBox="0 0 50 64" fill="none" xmlns="http://www.w3.org/2000/svg">
<path d="M39.7294 32.4325C26.4337 39.138 8.77383 33.3418 1.68964 31.4131C2.30726 34.2621 0.442382 40.4278 0.466294 40.9106C34.8207 41.8484 41.8532 29.9076 39.7294 32.4325Z" fill="white"/>
<path d="M44.6414 33.2888C34.6254 40.7917 15.5033 42.9914 8.58719 43.6539C9.12181 44.8272 13.9899 45.1579 16.7599 45.1849C31.6574 45.33 50.4821 37.5772 48.6462 36.5883C44.7904 36.2953 45.9842 33.9422 44.6414 33.2888Z" fill="white"/>
<path d="M41.2688 43.9708C28.8337 48.8101 13.5967 48.6641 6.8215 46.5602C5.5016 51.1777 1.92824 50.8849 1.95788 51.4834C28.2136 54.862 42.2551 44.6419 41.2688 43.9708Z" fill="white"/>
<path d="M11.455 57.4146C11.5893 57.6232 11.7057 57.7619 11.7057 57.7619C11.7057 57.7619 11.1677 57.3878 11.455 57.4146C11.0155 56.7317 10.3852 55.3001 13.025 55.537C17.3326 55.9235 25.5191 57.2871 35.8225 51.2577C40.3681 49.2329 37.3609 55.8607 33.867 57.4735C20.0305 64.6224 23.8328 63.2242 16.6416 59.7089C12.9625 57.9105 11.756 57.4426 11.455 57.4146Z" fill="white"/>
<path d="M17.4005 26.925H11.3586" stroke="white" stroke-width="0.966695"/>
<path d="M37.4593 26.925H31.4175" stroke="white" stroke-width="0.966695"/>
<path d="M6.28345 18.2247L20.7839 26.9249H24.2881M42.0512 18.4664L27.7924 26.9249H24.2881M27.0674 23.2998L30.2091 18.4664M21.2672 23.2998L18.1255 18.4664M24.2881 26.9249V7.34937" stroke="white" stroke-width="0.966695" stroke-linecap="round" stroke-linejoin="round"/>
<mask id="path-5-inside-1_2_28" fill="white">
<rect x="22.2339" y="3.48267" width="4.35013" height="4.35013" rx="0.483347"/>
</mask>
<rect x="22.2339" y="3.48267" width="4.35013" height="4.35013" rx="0.483347" stroke="white" stroke-width="2.90008" mask="url(#path-5-inside-1_2_28)"/>
<mask id="path-6-inside-2_2_28" fill="white">
<rect x="36.251" y="24.75" width="4.35013" height="4.35013" rx="0.483347"/>
</mask>
<rect x="36.251" y="24.75" width="4.35013" height="4.35013" rx="0.483347" stroke="white" stroke-width="2.90008" mask="url(#path-6-inside-2_2_28)"/>
<mask id="path-7-inside-3_2_28" fill="white">
<rect x="8.2168" y="24.75" width="4.35013" height="4.35013" rx="0.483347"/>
</mask>
<rect x="8.2168" y="24.75" width="4.35013" height="4.35013" rx="0.483347" stroke="white" stroke-width="2.90008" mask="url(#path-7-inside-3_2_28)"/>
<mask id="path-8-inside-4_2_28" fill="white">
<rect x="3.65234" y="14.1162" width="4.35013" height="4.35013" rx="0.483347" transform="rotate(30.4189 3.65234 14.1162)"/>
</mask>
<rect x="3.65234" y="14.1162" width="4.35013" height="4.35013" rx="0.483347" transform="rotate(30.4189 3.65234 14.1162)" stroke="white" stroke-width="2.90008" mask="url(#path-8-inside-4_2_28)"/>
<mask id="path-9-inside-5_2_28" fill="white">
<rect width="4.35013" height="4.35013" rx="0.483347" transform="matrix(-0.862347 0.506318 0.506318 0.862347 44.8357 14.1162)"/>
</mask>
<rect width="4.35013" height="4.35013" rx="0.483347" transform="matrix(-0.862347 0.506318 0.506318 0.862347 44.8357 14.1162)" stroke="white" stroke-width="2.90008" mask="url(#path-9-inside-5_2_28)"/>
<mask id="path-10-inside-6_2_28" fill="white">
<rect width="4.35013" height="4.35013" rx="0.483347" transform="matrix(-0.547894 0.836548 0.836548 0.547894 30.9009 13.6328)"/>
</mask>
<rect width="4.35013" height="4.35013" rx="0.483347" transform="matrix(-0.547894 0.836548 0.836548 0.547894 30.9009 13.6328)" stroke="white" stroke-width="2.90008" mask="url(#path-10-inside-6_2_28)"/>
<mask id="path-11-inside-7_2_28" fill="white">
<rect x="17.656" y="13.6328" width="4.35013" height="4.35013" rx="0.483347" transform="rotate(56.7773 17.656 13.6328)"/>
</mask>
<rect x="17.656" y="13.6328" width="4.35013" height="4.35013" rx="0.483347" transform="rotate(56.7773 17.656 13.6328)" stroke="white" stroke-width="2.90008" mask="url(#path-11-inside-7_2_28)"/>
<path d="M2.99782 4.76026C2.99617 4.72398 3.03972 4.71711 3.06572 4.713C3.2737 4.68018 4.24409 4.68486 5.0634 4.81551C5.1164 4.82398 5.15721 4.82571 5.18814 4.82083C5.24849 4.81131 5.26734 4.77869 5.30416 4.70577C5.34857 4.61786 5.40941 4.49749 5.6042 4.3737C5.68459 4.32262 5.7817 4.28781 5.8928 4.27028C6.33046 4.2012 6.92955 4.40407 7.31734 4.75265C7.31977 4.75483 7.32098 4.75514 7.32111 4.75512C7.34921 4.75069 7.42942 4.6242 7.53193 4.17689C7.60688 3.84981 7.6723 3.4403 7.69858 3.13356C7.73802 2.6734 7.95749 2.00051 8.10272 1.55528C8.16468 1.36529 8.21364 1.21524 8.22291 1.15827C8.23008 1.11437 8.24837 1.08976 8.27733 1.08519C8.29592 1.08226 8.31524 1.08879 8.3364 1.10516C8.57566 1.29043 9.28115 3.04022 9.34287 3.60153C9.39358 4.06247 9.08566 4.42817 8.9377 4.60391C8.92019 4.62468 8.90149 4.64689 8.8871 4.66523C8.97311 4.6178 9.13916 4.42943 9.35947 4.17951C9.67732 3.81896 10.1577 3.2741 10.8271 2.65582C11.7648 1.78967 12.3268 0.989164 12.6625 0.510926C12.8862 0.192412 12.9801 0.0626411 13.0585 0.0502693C13.0771 0.0473305 13.1121 0.0490518 13.1372 0.0937403C13.2655 0.322551 13.5489 2.85286 12.6455 4.38748C12.141 5.24435 11.4067 5.75931 10.9208 6.10008C10.6408 6.29643 10.4197 6.45153 10.4 6.56741C10.3955 6.59376 10.4015 6.61742 10.4188 6.6419C10.4845 6.73495 10.5908 6.8445 10.7253 6.98325C11.0956 7.36503 11.6552 7.94202 12.1606 8.97127C12.3877 9.43372 14.2285 10.8888 14.7026 11.2382C14.7257 11.2553 15.2686 11.6573 15.2348 11.8003C15.2321 11.8117 15.2216 11.8389 15.1817 11.8452C15.084 11.8606 14.7994 11.7318 14.3357 11.4615C13.7288 11.1078 13.3038 10.7988 12.9934 10.573C12.6913 10.3532 12.5023 10.2162 12.3874 10.2163C12.4064 10.2703 12.4613 10.408 12.6164 10.7527C12.6201 10.761 12.6283 10.7808 12.6195 10.7975L12.6114 10.8172L12.5961 10.8196C12.5961 10.8196 12.5961 10.8196 12.596 10.8196C12.5722 10.8234 12.5569 10.806 12.4331 10.6925C12.0553 10.346 10.9048 9.28682 9.53024 9.23209C8.72476 9.2 7.63926 8.61966 7.12317 7.57252C6.34261 5.98888 5.74394 5.00964 3.37436 4.83986C3.00022 4.81303 2.99924 4.79204 2.99782 4.76026Z" fill="#FFA100"/>
</svg>
