<svg width="15" height="13" viewBox="0 0 15 13" fill="none" xmlns="http://www.w3.org/2000/svg">
<path d="M14.2965 0.864893C13.7013 1.28476 13.0422 1.60589 12.3447 1.81592C11.9704 1.38548 11.4729 1.08039 10.9195 0.941924C10.3661 0.803456 9.78349 0.838287 9.25053 1.0417C8.71758 1.24512 8.25995 1.60731 7.93955 2.07929C7.61915 2.55127 7.45143 3.11027 7.45907 3.68067V4.30226C6.36672 4.33058 5.28432 4.08832 4.30827 3.59704C3.33221 3.10576 2.49281 2.38071 1.86481 1.48648C1.86481 1.48648 -0.621526 7.08074 4.97274 9.56708C3.6926 10.436 2.16762 10.8717 0.621643 10.8102C6.2159 13.9182 13.0533 10.8102 13.0533 3.66202C13.0528 3.48888 13.0361 3.31617 13.0036 3.14611C13.638 2.52048 14.0857 1.73058 14.2965 0.864893V0.864893Z" stroke="white" stroke-width="0.745902" stroke-linecap="round" stroke-linejoin="round"/>
</svg>
